<?xml version="1.0" encoding="UTF-8" standalone="no"?>
<!-- Created with Inkscape (http://www.inkscape.org/) -->

<svg
   width="16"
   height="16"
   viewBox="0 0 4.2333333 4.2333333"
   version="1.1"
   id="svg1"
   xml:space="preserve"
   inkscape:version="1.3.2 (091e20e, 2023-11-25, custom)"
   sodipodi:docname="creeper_icon.svg"
   xmlns:inkscape="http://www.inkscape.org/namespaces/inkscape"
   xmlns:sodipodi="http://sodipodi.sourceforge.net/DTD/sodipodi-0.dtd"
   xmlns="http://www.w3.org/2000/svg"
   xmlns:svg="http://www.w3.org/2000/svg"><sodipodi:namedview
     id="namedview1"
     pagecolor="#ffffff"
     bordercolor="#000000"
     borderopacity="0.25"
     inkscape:showpageshadow="2"
     inkscape:pageopacity="0.0"
     inkscape:pagecheckerboard="0"
     inkscape:deskcolor="#d1d1d1"
     inkscape:document-units="mm"
     inkscape:zoom="32.98294"
     inkscape:cx="15.826363"
     inkscape:cy="12.809652"
     inkscape:window-width="2560"
     inkscape:window-height="1369"
     inkscape:window-x="2552"
     inkscape:window-y="-8"
     inkscape:window-maximized="1"
     inkscape:current-layer="svg1" /><defs
     id="defs1" /><path
     style="fill:#000000;stroke-width:0.0839349"
     d="m 104.7659,150.03142 v -0.74397 h 0.24428 0.24429 v -0.24429 -0.24428 l -0.49413,2e-5 -0.49412,2e-5 0.006,-0.48777 0.006,-0.48777 0.48777,-0.006 0.48777,-0.006 -2e-5,0.49412 -2e-5,0.49413 h 0.49967 0.49968 v -0.48858 -0.48857 h 0.48857 0.48857 v 0.48857 0.48858 h -0.48857 -0.48857 v 0.24428 0.24429 h 0.24429 0.24428 v 0.74396 0.74396 h -0.24428 -0.24429 v -0.24429 -0.24428 h -0.49968 -0.49967 v 0.24428 0.24429 h -0.24429 -0.24428 z"
     id="path1"
     inkscape:label="Face"
     transform="translate(-103.63155,-147.17708)" /><path
     id="rect1"
     style="fill:#000000;stroke-width:0.265991"
     d="M 103.74834 147.29387 L 103.74834 151.29362 L 107.74809 151.29362 L 107.74809 147.29387 L 103.74834 147.29387 z M 103.8734 147.41893 L 107.62304 147.41893 L 107.62304 151.16857 L 103.8734 151.16857 L 103.8734 147.41893 z "
     inkscape:label="Outline"
     transform="translate(-103.63155,-147.17708)" /></svg>
